<svg width="14" height="16" viewBox="0 0 14 16" fill="none" xmlns="http://www.w3.org/2000/svg">
<path fill-rule="evenodd" clip-rule="evenodd" d="M4.8125 3.04762C4.8125 2.62705 5.12609 2.28571 5.51249 2.28571C5.89889 2.28571 6.2125 2.62705 6.2125 3.04762C6.2125 3.46819 5.89889 3.80952 5.51249 3.80952C5.12609 3.80952 4.8125 3.46819 4.8125 3.04762ZM12.6 12.9524C12.6 13.373 12.2864 13.7143 11.9 13.7143H11.2V10.6667C11.2 9.82476 10.5735 9.14286 9.80001 9.14286H4.19999C3.42649 9.14286 2.80001 9.82476 2.80001 10.6667V13.7143H2.1C1.7136 13.7143 1.4 13.373 1.4 12.9524V5.36686C1.4 5.26553 1.4371 5.16877 1.5022 5.09791L2.80001 3.68534V4.57143C2.80001 5.41333 3.42649 6.09524 4.19999 6.09524H9.80001C10.5735 6.09524 11.2 5.41333 11.2 4.57143V1.52381H11.9C12.2864 1.52381 12.6 1.86514 12.6 2.28571V12.9524ZM9.80001 13.7143H4.19999V11.4286C4.19999 11.008 4.5136 10.6667 4.9 10.6667H9.1C9.4864 10.6667 9.80001 11.008 9.80001 11.4286V13.7143ZM4.19999 2.16153L4.78591 1.52381H9.80001V3.80952C9.80001 4.2301 9.4864 4.57143 9.1 4.57143H4.9C4.5136 4.57143 4.19999 4.2301 4.19999 3.80952V2.16153ZM12.6 0H4.48981C4.30431 0 4.12649 0.0799995 3.99489 0.223238L0.205098 4.34819C0.0734985 4.49143 0 4.68495 0 4.88686V13.7143C0 14.5562 0.626504 15.2381 1.4 15.2381H12.6C13.3735 15.2381 14 14.5562 14 13.7143V1.52381C14 0.681905 13.3735 0 12.6 0Z" fill="#1B0089"/>
</svg>
